<svg xmlns="http://www.w3.org/2000/svg" viewBox="0 0 900 200">
  <defs>
    <linearGradient id="bg" x1="0%" y1="0%" x2="100%" y2="100%">
      <stop offset="0%" style="stop-color:#001B41"/>
      <stop offset="100%" style="stop-color:#003068"/>
    </linearGradient>
  </defs>
  <rect width="900" height="200" rx="12" fill="url(#bg)"/>
  <!-- IONOS Cloud wordmark — single instance, centered -->
  <g transform="translate(284.7,40) scale(2.5)">
    <g fill="white">
      <path d="M1.98,23.99c-1.11,0-1.98-0.88-1.98-2V1.99l0-0.04C0.02,0.87,0.89,0,1.99,0C2.9,0,3.66,0.59,3.9,1.46C3.91,1.49,3.92,1.54,3.93,1.6l0.01,0.09C3.96,1.8,3.97,1.9,3.97,2c0,0,0,19.75,0,19.98C3.97,23.11,3.1,23.99,1.98,23.99"/>
      <path d="M17.61,3.64c-0.64,0-1.24,0.25-1.69,0.7c-0.45,0.45-0.7,1.05-0.7,1.69v11.93c0,0.65,0.25,1.25,0.69,1.7c0.45,0.45,1.05,0.69,1.7,0.69c0.64,0,1.24-0.25,1.69-0.7c0.45-0.45,0.7-1.05,0.7-1.69V6.03c0-0.62-0.25-1.22-0.71-1.68C18.83,3.9,18.24,3.64,17.61,3.64 M17.61,24c-1.61,0-3.12-0.63-4.26-1.77c-1.14-1.14-1.77-2.65-1.77-4.26V6.03c0-1.61,0.63-3.12,1.77-4.26C14.49,0.63,16,0,17.61,0c1.61,0,3.12,0.63,4.26,1.77c1.14,1.14,1.77,2.65,1.77,4.26v11.93c0,1.61-0.63,3.12-1.77,4.26C20.74,23.37,19.22,24,17.61,24"/>
      <path d="M34.73,1.03c0,0-0.01-0.03-0.02-0.03c-0.31-0.61-0.97-0.99-1.65-0.99c-0.13,0-0.25,0.01-0.37,0.04c-0.85,0.17-1.44,0.9-1.44,1.77v0.42L41.28,23c0.33,0.61,0.96,1,1.62,1c0.15,0,0.29-0.02,0.42-0.05c0.84-0.18,1.42-0.9,1.42-1.77v-0.39C44.73,21.78,35,1.59,34.73,1.03 M44.76,19.26V1.82c0-1.02-0.8-1.82-1.82-1.82c-1.02,0-1.82,0.8-1.82,1.82v9.88L44.76,19.26z M34.88,12.31v9.87c0,1.02-0.8,1.82-1.82,1.82c-1.02,0-1.82-0.8-1.82-1.82V4.75L34.88,12.31z"/>
      <path d="M58.33,3.64c-1.32,0-2.39,1.07-2.39,2.39v11.93c0,1.34,1.05,2.39,2.39,2.39c1.32,0,2.39-1.07,2.39-2.39V6.03C60.72,4.74,59.63,3.64,58.33,3.64 M58.33,24c-3.33,0-6.03-2.71-6.03-6.03V6.03C52.3,2.71,55.01,0,58.33,0c3.33,0,6.03,2.71,6.03,6.03v11.93C64.37,21.29,61.66,24,58.33,24"/>
      <path d="M76.08,24c-0.41,0-0.82-0.04-1.21-0.12c-1.73-0.35-3.24-1.43-4.15-2.96l-0.02-0.04c-0.45-0.9-0.15-1.95,0.69-2.46c0.28-0.17,0.6-0.26,0.92-0.26c0.66,0,1.26,0.36,1.59,0.93c0.02,0.03,0.04,0.07,0.06,0.1l0.19,0.26l0.26,0.26c0.32,0.28,0.74,0.49,1.18,0.57c0.71,0.14,1.48-0.04,2.04-0.47c0.61-0.44,0.97-1.1,1.03-1.85c0.06-0.74-0.21-1.48-0.71-1.98c0,0-5.49-5.7-5.73-5.96c-0.14-0.15-0.39-0.4-0.66-0.79c-0.77-1.1-1.02-2.39-0.9-3.67c0.06-0.88,0.33-1.76,0.77-2.54c0,0,0.25-0.43,0.33-0.53c0.29-0.42,0.86-0.97,1.25-1.28c0.38-0.29,0.88-0.55,1.05-0.63c1.08-0.52,2.46-0.77,3.82-0.48c1.69,0.36,3.15,1.42,4.01,2.9c0.25,0.41,0.32,0.9,0.19,1.38c-0.13,0.48-0.43,0.87-0.87,1.12c-0.26,0.16-0.57,0.24-0.89,0.24c-0.65,0-1.27-0.36-1.58-0.93c-0.35-0.59-0.92-0.99-1.6-1.13c-0.66-0.13-1.39,0.03-1.94,0.44c-0.53,0.4-0.86,1.02-0.92,1.71c-0.05,0.69,0.18,1.35,0.65,1.85l5.61,5.78c1.22,1.26,1.86,3.01,1.74,4.78c-0.16,1.8-1.05,3.43-2.45,4.48C78.76,23.55,77.43,24,76.08,24"/>
      <path d="M126.91,20.1c-0.36-0.51-0.54-1.19-0.54-2.04c0-0.9,0.18-1.59,0.53-2.08c0.35-0.49,0.85-0.73,1.5-0.73c0.77,0,1.35,0.29,1.75,0.88v3.85c-0.38,0.59-0.97,0.88-1.75,0.88C127.77,20.87,127.27,20.61,126.91,20.1 M130.15,22v0.67h2.11v-13l-2.11,0.95v3.49c-0.49-0.58-1.18-0.86-2.07-0.86c-1.13,0-2.05,0.43-2.75,1.3c-0.71,0.86-1.06,2.03-1.06,3.51c0,1.51,0.34,2.69,1.03,3.55s1.61,1.28,2.79,1.28C129,22.88,129.69,22.59,130.15,22 M122.56,22.67v-9.2h-2.11v5.29c0,1.4-0.62,2.11-1.85,2.11c-1.15,0-1.73-0.71-1.73-2.14v-5.26h-2.11v5.63c0,1.31,0.31,2.27,0.92,2.87c0.61,0.61,1.4,0.91,2.36,0.91c1.03,0,1.84-0.37,2.41-1.1v0.88H122.56z M107.42,20.12c-0.38-0.5-0.57-1.18-0.57-2.04c0-0.86,0.19-1.55,0.58-2.06c0.38-0.51,0.89-0.77,1.53-0.77c0.66,0,1.18,0.25,1.56,0.76c0.38,0.5,0.57,1.19,0.57,2.07c0,0.88-0.19,1.56-0.57,2.05c-0.38,0.49-0.9,0.74-1.56,0.74C108.32,20.87,107.8,20.62,107.42,20.12 M112.06,21.6c0.76-0.85,1.13-2.03,1.13-3.53c0-1.5-0.38-2.68-1.14-3.54c-0.76-0.86-1.79-1.29-3.09-1.29s-2.32,0.43-3.08,1.29c-0.76,0.86-1.13,2.04-1.13,3.54c0,1.5,0.38,2.68,1.13,3.53s1.78,1.28,3.08,1.28C110.27,22.88,111.3,22.46,112.06,21.6 M103,22.67v-13l-2.11,0.99v12.01H103z M99.31,19.93l-2-0.76c-0.65,1.08-1.45,1.62-2.41,1.62c-0.98,0-1.74-0.44-2.26-1.33c-0.52-0.89-0.78-1.92-0.78-3.1c0-0.53,0.05-1.04,0.15-1.54c0.1-0.5,0.26-0.97,0.49-1.42c0.22-0.45,0.54-0.81,0.95-1.08c0.41-0.27,0.9-0.4,1.45-0.4c0.56,0,1.03,0.12,1.39,0.36c0.37,0.24,0.72,0.62,1.05,1.13l1.94-0.88c-0.3-0.74-0.83-1.38-1.58-1.9c-0.76-0.52-1.69-0.78-2.81-0.78c-0.92,0-1.74,0.2-2.45,0.6c-0.71,0.4-1.26,0.93-1.66,1.58c-0.4,0.65-0.69,1.35-0.88,2.08c-0.19,0.73-0.29,1.48-0.29,2.25c0,0.65,0.06,1.27,0.17,1.87c0.11,0.6,0.3,1.19,0.57,1.76c0.26,0.58,0.59,1.07,0.98,1.49c0.39,0.42,0.89,0.76,1.5,1.01c0.61,0.25,1.3,0.38,2.05,0.38C96.97,22.88,98.44,21.9,99.31,19.93"/>
    </g>
  </g>
  <text x="450" y="128" text-anchor="middle" font-family="Arial, Helvetica, sans-serif" font-weight="600" font-size="22" fill="#11C7E6" letter-spacing="4">NETWORK VISUALIZER</text>
  <text x="450" y="158" text-anchor="middle" font-family="Arial, Helvetica, sans-serif" font-weight="400" font-size="13" fill="#a0c4e8">Interactive network topology visualization for your cloud infrastructure</text>
</svg>
